<?xml version="1.0" encoding="UTF-8"?>
<svg id="Layer_2" data-name="Layer 2" xmlns="http://www.w3.org/2000/svg" viewBox="0 0 60.98 28.92">
  <defs>
    <style>
      .cls-1, .cls-2 {
        fill: none;
      }

      .cls-3 {
        font-family: NunitoSans-ExtraBold, 'Nunito Sans';
        font-size: 2.94px;
        font-weight: 700;
        isolation: isolate;
      }

      .cls-3, .cls-4 {
        fill: #1f9ec9;
      }

      .cls-5 {
        fill: #f8ed34;
      }

      .cls-6 {
        fill: #eb7551;
      }

      .cls-7 {
        fill: #eb4d9c;
      }

      .cls-8 {
        fill: #9958a3;
      }

      .cls-9 {
        fill: #a7c739;
      }

      .cls-10 {
        fill: #be202e;
      }

      .cls-2 {
        stroke: #1f9ec9;
        stroke-miterlimit: 10;
        stroke-width: .43px;
      }
    </style>
  </defs>
  <g id="Layer_2-2" data-name="Layer 2">
    <g id="Layer_1-2" data-name="Layer 1-2">
      <g>
        <g id="Page-1">
          <circle class="cls-2" cx="58.74" cy="2.24" r="2.03"/>
          <text class="cls-3" transform="translate(57.69 3.29)"><tspan x="0" y="0">R</tspan></text>
        </g>
        <path class="cls-4" d="M52.78,28.92V.02h2.9V28.92h-2.9Z"/>
        <path class="cls-4" d="M12.27,.02h2.45l12.19,28.89h-3.06l-3.82-9.02H6.84l-3.75,9.02H0L12.27,.02Zm7.07,17.62L13.45,3.35l-6,14.29h11.89Z"/>
        <g>
          <path class="cls-1" d="M32.68,4.26l.11,.31-.11-.31c-1.3,.65-2.41,1.53-3.29,2.64l.15,.15-.15-.15c-.38,.46-.73,.96-1.03,1.49-.42,.73-.73,1.49-.99,2.29l.15,.04-.15-.04c-.38,1.26-.61,2.6-.61,4.05v.27l.34-.04-.34,.04c.04,1.57,.38,3.02,.99,4.36l.57-.34-.57,.34c.5,1.07,1.18,2.06,2.06,3.02,.19,.23,.42,.42,.61,.61l.61-.88-.57,.88c1.91,1.8,4.09,2.68,6.57,2.68,1.76,0,3.55-.54,5.43-1.64l-6.04-6.15h4.17l4.13,4.36c1.99-2.25,3.02-5.08,3.02-8.48,0-1.41-.31-2.83-.96-4.28-1.15-2.64-3.1-4.47-5.81-5.54-1.3-.5-2.64-.76-4.05-.76h-.11c-1.34,.04-2.45,.34-3.75,.92-.11,.08-.27,.15-.38,.19h0Z"/>
          <path class="cls-4" d="M47.43,24.52c2.79-2.56,4.2-5.92,4.2-10.13,0-2.56-.65-4.93-1.95-7.15-1.3-2.22-3.06-3.97-5.27-5.27C42.23,.67,39.86,.02,37.34,.02h-.31V3.16h.15c1.45,0,2.87,.27,4.17,.76,2.79,1.07,4.74,2.9,5.92,5.54,.65,1.45,.96,2.87,.96,4.28,0,3.4-1.03,6.23-3.06,8.48l-4.24-4.36h-4.24l6.15,6.15c-1.91,1.11-3.75,1.64-5.54,1.64-2.52,0-4.78-.92-6.73-2.68l-1.91,2.71c.99,.8,2.1,1.49,3.33,2.03,1.76,.76,3.63,1.15,5.66,1.15,2.56,0,5.08-.92,7.53-2.6l2.37,2.41h4.05l-4.17-4.17h0Z"/>
          <g>
            <path class="cls-7" d="M24.31,9.61l3.13,1.07c.27-.8,.61-1.57,1.03-2.29,.31-.54,.65-1.03,1.03-1.49l-2.37-2.18c-1.3,1.49-2.22,3.1-2.83,4.89Z"/>
            <path class="cls-10" d="M31.61,1.28h0s-.04,0,0,0l1.3,2.98c.11-.04,.27-.11,.38-.15,1.34-.61,2.45-.92,3.82-.92V.02c-2.22,.04-3.86,.46-5.5,1.26h0Z"/>
            <path class="cls-8" d="M31.57,1.28c-1.49,.73-2.87,1.76-4.09,3.1-.11,.11-.19,.23-.31,.34l2.37,2.18c.92-1.11,2.06-1.99,3.36-2.64h0l-1.34-2.98h0Z"/>
            <path class="cls-9" d="M28.66,25.74l1.91-2.71c-.23-.19-.42-.42-.65-.61-.92-.96-1.61-1.95-2.1-3.02l-2.83,1.64c.92,1.87,2.14,3.44,3.67,4.7Z"/>
            <path class="cls-5" d="M24.54,19.97c.15,.38,.31,.73,.5,1.07l2.87-1.68c-.65-1.34-.99-2.79-1.03-4.36l-3.33,.34c.04,1.57,.38,3.1,.99,4.62h0Z"/>
            <path class="cls-6" d="M23.51,14.74v.65l3.33-.34v-.27c0-1.45,.19-2.79,.61-4.05l-3.13-1.07c-.54,1.57-.8,3.25-.8,5.08h0Z"/>
          </g>
        </g>
      </g>
    </g>
  </g>
</svg>